<svg xmlns="http://www.w3.org/2000/svg" xmlns:xlink="http://www.w3.org/1999/xlink" width="500" zoomAndPan="magnify" viewBox="0 0 375 374.999991" height="500" preserveAspectRatio="xMidYMid meet" version="1.0"><defs><g/></defs><rect x="-37.5" width="450" fill="#ffffff" y="-37.499999" height="449.999989" fill-opacity="1"/><rect x="-37.5" width="450" fill="#ffffff" y="-37.499999" height="449.999989" fill-opacity="1"/><g fill="#000000" fill-opacity="1"><g transform="translate(22.932866, 264.282949)"><g><path d="M 37.25 -80.34375 C 37.25 -53.675781 40.738281 -34.078125 47.71875 -21.546875 C 54.695312 -9.015625 65.570312 -2.75 80.34375 -2.75 C 95.039062 -2.75 105.859375 -8.992188 112.796875 -21.484375 C 119.742188 -33.984375 123.21875 -53.601562 123.21875 -80.34375 C 123.21875 -106.945312 119.742188 -126.507812 112.796875 -139.03125 C 105.859375 -151.5625 95.039062 -157.828125 80.34375 -157.828125 C 65.644531 -157.828125 54.785156 -151.523438 47.765625 -138.921875 C 40.753906 -126.316406 37.25 -106.789062 37.25 -80.34375 Z M 10.578125 -80.125 C 10.578125 -91.582031 12.300781 -102.4375 15.75 -112.6875 C 19.207031 -122.9375 24.28125 -132.175781 30.96875 -140.40625 C 37.800781 -148.707031 45.476562 -155.0625 54 -159.46875 C 62.53125 -163.882812 71.382812 -166.09375 80.5625 -166.09375 C 90.1875 -166.09375 99.128906 -164.015625 107.390625 -159.859375 C 115.660156 -155.710938 123.140625 -149.523438 129.828125 -141.296875 C 136.296875 -133.359375 141.253906 -124.117188 144.703125 -113.578125 C 148.160156 -103.035156 149.890625 -91.882812 149.890625 -80.125 C 149.890625 -68.8125 148.109375 -57.914062 144.546875 -47.4375 C 140.984375 -36.96875 135.929688 -27.617188 129.390625 -19.390625 C 122.703125 -11.160156 115.1875 -4.929688 106.84375 -0.703125 C 98.507812 3.515625 89.601562 5.625 80.125 5.625 C 70.5 5.625 61.660156 3.695312 53.609375 -0.15625 C 45.566406 -4.019531 38.238281 -9.847656 31.625 -17.640625 C 24.425781 -25.941406 19.117188 -35.140625 15.703125 -45.234375 C 12.285156 -55.335938 10.578125 -66.96875 10.578125 -80.125 Z M 10.578125 -80.125 "/></g></g></g><g fill="#000000" fill-opacity="1"><g transform="translate(178.666215, 264.282949)"><g><path d="M 9.484375 0 L 9.484375 -8.265625 C 20.503906 -8.484375 27.425781 -9.601562 30.25 -11.625 C 33.082031 -13.644531 34.5 -17.890625 34.5 -24.359375 L 34.5 -138.875 C 34.5 -145.257812 33.117188 -149.441406 30.359375 -151.421875 C 27.609375 -153.410156 20.648438 -154.476562 9.484375 -154.625 L 9.484375 -163 L 147.578125 -163 L 148.796875 -104.703125 L 142.390625 -104.703125 C 140.265625 -124.023438 135.546875 -137.175781 128.234375 -144.15625 C 120.921875 -151.132812 107.894531 -154.625 89.15625 -154.625 C 73.800781 -154.625 64.582031 -153.628906 61.5 -151.640625 C 58.414062 -149.660156 56.875 -145.40625 56.875 -138.875 L 56.875 -88.28125 L 57.96875 -88.28125 C 72.8125 -88.28125 83.351562 -90.722656 89.59375 -95.609375 C 95.84375 -100.492188 99.15625 -108.78125 99.53125 -120.46875 L 104.921875 -120.578125 L 104.921875 -44.75 L 99.53125 -44.75 C 98.644531 -57.894531 95.222656 -67.222656 89.265625 -72.734375 C 83.316406 -78.242188 73.726562 -81 60.5 -81 L 56.875 -81 L 56.875 -24.359375 C 56.875 -17.742188 58.394531 -13.425781 61.4375 -11.40625 C 64.488281 -9.382812 73.289062 -8.375 87.84375 -8.375 C 100.914062 -8.375 110.410156 -9.3125 116.328125 -11.1875 C 122.242188 -13.0625 127.40625 -16.3125 131.8125 -20.9375 C 135.414062 -24.832031 138.519531 -30.4375 141.125 -37.75 C 143.738281 -45.0625 145.671875 -53.710938 146.921875 -63.703125 L 153.75 -63.15625 L 149.671875 0 Z M 9.484375 0 "/></g></g></g><path fill="#ffffff" d="M 22.734375 148.316406 L 352.253906 148.316406 C 357.863281 148.316406 362.414062 152.863281 362.414062 158.472656 L 362.414062 205.875 C 362.414062 211.488281 357.863281 216.035156 352.253906 216.035156 L 22.734375 216.035156 C 17.125 216.035156 12.574219 211.488281 12.574219 205.875 L 12.574219 158.472656 C 12.574219 152.863281 17.125 148.316406 22.734375 148.316406 Z M 22.734375 148.316406 " fill-opacity="1" fill-rule="nonzero"/><g fill="#000000" fill-opacity="1"><g transform="translate(12.575345, 204.18352)"><g><path d="M 15.40625 -0.328125 C 17.300781 -0.328125 19.097656 -0.910156 20.796875 -2.078125 C 22.472656 -3.222656 24.023438 -4.765625 25.453125 -6.703125 C 26.160156 -7.679688 26.820312 -8.703125 27.4375 -9.765625 C 28.050781 -10.835938 28.632812 -11.957031 29.1875 -13.125 C 30.25 -15.476562 31.109375 -17.859375 31.765625 -20.265625 C 33.242188 -25.910156 33.550781 -30.75 32.6875 -34.78125 C 31.613281 -39.363281 29.171875 -41.65625 25.359375 -41.65625 C 22.117188 -41.65625 18.921875 -40.597656 15.765625 -38.484375 C 12.640625 -36.390625 9.753906 -33.390625 7.109375 -29.484375 C 5.671875 -27.265625 4.476562 -25.054688 3.53125 -22.859375 C 2.582031 -20.671875 1.878906 -18.503906 1.421875 -16.359375 C 0.472656 -12.085938 0.726562 -8.9375 2.1875 -6.90625 C 2.289062 -6.800781 2.421875 -6.757812 2.578125 -6.78125 C 2.710938 -6.78125 2.859375 -6.832031 3.015625 -6.9375 C 3.179688 -7.070312 3.28125 -7.21875 3.3125 -7.375 C 3.351562 -7.550781 3.316406 -7.679688 3.203125 -7.765625 C 1.898438 -9.617188 1.722656 -12.570312 2.671875 -16.625 C 3.597656 -20.707031 5.40625 -24.851562 8.09375 -29.0625 C 8.800781 -30.164062 9.695312 -31.351562 10.78125 -32.625 C 11.332031 -33.269531 11.921875 -33.90625 12.546875 -34.53125 C 13.171875 -35.15625 13.835938 -35.765625 14.546875 -36.359375 C 15.929688 -37.523438 17.53125 -38.519531 19.34375 -39.34375 C 21.125 -40.113281 23.019531 -40.5 25.03125 -40.5 C 26.832031 -40.5 28.265625 -39.925781 29.328125 -38.78125 C 30.359375 -37.632812 31.09375 -36.09375 31.53125 -34.15625 C 31.925781 -32.226562 32.039062 -30.066406 31.875 -27.671875 C 31.71875 -25.285156 31.285156 -22.816406 30.578125 -20.265625 C 29.171875 -15.109375 27.15625 -10.742188 24.53125 -7.171875 C 23.9375 -6.316406 23.175781 -5.445312 22.25 -4.5625 C 21.363281 -3.695312 20.359375 -2.976562 19.234375 -2.40625 C 18.160156 -1.8125 16.984375 -1.515625 15.703125 -1.515625 C 14.117188 -1.515625 12.84375 -2.144531 11.875 -3.40625 C 10.925781 -4.664062 10.394531 -6.453125 10.28125 -8.765625 C 10.238281 -10.390625 10.359375 -11.984375 10.640625 -13.546875 C 10.929688 -15.117188 11.382812 -16.675781 12 -18.21875 C 13.207031 -21.28125 14.75 -23.414062 16.625 -24.625 C 16.78125 -24.71875 16.890625 -24.835938 16.953125 -24.984375 C 17.023438 -25.140625 17.035156 -25.285156 16.984375 -25.421875 C 16.921875 -25.578125 16.820312 -25.664062 16.6875 -25.6875 C 16.539062 -25.726562 16.378906 -25.695312 16.203125 -25.59375 C 13.859375 -24.09375 12.0625 -21.65625 10.8125 -18.28125 C 10.164062 -16.601562 9.695312 -14.9375 9.40625 -13.28125 C 9.125 -11.632812 9.007812 -10.003906 9.0625 -8.390625 C 9.1875 -5.835938 9.800781 -3.859375 10.90625 -2.453125 C 11.988281 -1.035156 13.488281 -0.328125 15.40625 -0.328125 Z M 15.40625 -0.328125 "/></g></g></g><g fill="#000000" fill-opacity="1"><g transform="translate(48.27259, 204.18352)"><g><path d="M -0.171875 -13.546875 C -0.0351562 -13.546875 0.109375 -13.59375 0.265625 -13.6875 C 0.285156 -13.707031 0.300781 -13.71875 0.3125 -13.71875 C 0.320312 -13.71875 0.335938 -13.726562 0.359375 -13.75 L 0.796875 -14.109375 C 1.546875 -14.753906 2.265625 -15.34375 2.953125 -15.875 C 3.648438 -16.414062 4.316406 -16.929688 4.953125 -17.421875 C 6.234375 -18.367188 7.238281 -18.84375 7.96875 -18.84375 C 8.300781 -18.84375 8.476562 -18.632812 8.5 -18.21875 C 8.519531 -18 8.503906 -17.726562 8.453125 -17.40625 C 8.410156 -17.082031 8.347656 -16.703125 8.265625 -16.265625 C 8.222656 -16.046875 8.1875 -15.832031 8.15625 -15.625 C 8.132812 -15.414062 8.113281 -15.210938 8.09375 -15.015625 C 8.070312 -14.585938 8.109375 -14.242188 8.203125 -13.984375 C 8.304688 -13.722656 8.554688 -13.59375 8.953125 -13.59375 C 9.347656 -13.59375 9.8125 -13.789062 10.34375 -14.1875 C 10.875 -14.582031 11.492188 -15.097656 12.203125 -15.734375 C 12.578125 -16.109375 12.972656 -16.472656 13.390625 -16.828125 C 13.804688 -17.179688 14.234375 -17.519531 14.671875 -17.84375 C 15.535156 -18.507812 16.273438 -18.84375 16.890625 -18.84375 C 17.085938 -18.84375 17.195312 -18.742188 17.21875 -18.546875 C 17.238281 -18.453125 17.253906 -18.3125 17.265625 -18.125 C 17.285156 -17.9375 17.296875 -17.710938 17.296875 -17.453125 C 17.265625 -17.191406 17.265625 -16.921875 17.296875 -16.640625 C 17.335938 -16.367188 17.378906 -16.078125 17.421875 -15.765625 C 17.503906 -15.191406 17.800781 -14.6875 18.3125 -14.25 C 18.820312 -13.8125 19.640625 -13.59375 20.765625 -13.59375 C 21.691406 -13.59375 22.691406 -13.78125 23.765625 -14.15625 C 24.296875 -14.320312 24.816406 -14.519531 25.328125 -14.75 C 25.847656 -14.988281 26.363281 -15.238281 26.875 -15.5 C 27.382812 -15.75 27.875 -16.003906 28.34375 -16.265625 C 28.820312 -16.523438 29.269531 -16.78125 29.6875 -17.03125 C 29.707031 -17.03125 29.726562 -17.039062 29.75 -17.0625 C 29.96875 -17.164062 30.175781 -17.28125 30.375 -17.40625 C 30.570312 -17.53125 30.769531 -17.632812 30.96875 -17.71875 C 31.125 -17.800781 31.25 -17.921875 31.34375 -18.078125 C 31.40625 -18.210938 31.414062 -18.367188 31.375 -18.546875 C 31.300781 -18.703125 31.203125 -18.789062 31.078125 -18.8125 C 30.921875 -18.832031 30.765625 -18.796875 30.609375 -18.703125 C 30.390625 -18.597656 30.175781 -18.484375 29.96875 -18.359375 C 29.757812 -18.242188 29.535156 -18.117188 29.296875 -17.984375 C 28.054688 -17.253906 26.6875 -16.535156 25.1875 -15.828125 C 23.707031 -15.109375 22.332031 -14.75 21.0625 -14.75 C 20.238281 -14.75 19.640625 -14.898438 19.265625 -15.203125 C 18.941406 -15.492188 18.722656 -15.867188 18.609375 -16.328125 C 18.503906 -16.765625 18.472656 -17.238281 18.515625 -17.75 C 18.515625 -17.925781 18.507812 -18.109375 18.5 -18.296875 C 18.488281 -18.484375 18.472656 -18.664062 18.453125 -18.84375 C 18.421875 -19.019531 18.378906 -19.171875 18.328125 -19.296875 C 18.273438 -19.429688 18.203125 -19.554688 18.109375 -19.671875 C 17.960938 -19.890625 17.65625 -20 17.1875 -20 C 16.3125 -20 15.375 -19.632812 14.375 -18.90625 C 13.894531 -18.550781 13.410156 -18.171875 12.921875 -17.765625 C 12.441406 -17.359375 11.96875 -16.9375 11.5 -16.5 C 11.300781 -16.320312 11.101562 -16.144531 10.90625 -15.96875 C 10.707031 -15.789062 10.5 -15.613281 10.28125 -15.4375 C 9.84375 -15.0625 9.523438 -14.84375 9.328125 -14.78125 C 9.304688 -14.90625 9.304688 -15.132812 9.328125 -15.46875 C 9.347656 -15.625 9.367188 -15.769531 9.390625 -15.90625 C 9.410156 -16.050781 9.429688 -16.203125 9.453125 -16.359375 C 9.492188 -16.628906 9.535156 -16.898438 9.578125 -17.171875 C 9.628906 -17.453125 9.664062 -17.734375 9.6875 -18.015625 C 9.707031 -18.566406 9.640625 -19.039062 9.484375 -19.4375 C 9.285156 -19.8125 8.878906 -20 8.265625 -20 C 7.335938 -20 6.234375 -19.554688 4.953125 -18.671875 C 4.316406 -18.234375 3.628906 -17.726562 2.890625 -17.15625 C 2.148438 -16.582031 1.375 -15.941406 0.5625 -15.234375 C 0.601562 -15.523438 0.660156 -15.820312 0.734375 -16.125 C 0.816406 -16.4375 0.898438 -16.769531 0.984375 -17.125 C 1.078125 -17.476562 1.160156 -17.796875 1.234375 -18.078125 C 1.316406 -18.367188 1.390625 -18.625 1.453125 -18.84375 L 1.625 -19.4375 C 1.664062 -19.613281 1.640625 -19.742188 1.546875 -19.828125 C 1.441406 -19.941406 1.320312 -20 1.1875 -20 C 1.050781 -20 0.910156 -19.941406 0.765625 -19.828125 C 0.609375 -19.742188 0.5 -19.613281 0.4375 -19.4375 L 0.265625 -18.84375 C -0.0859375 -17.457031 -0.351562 -16.398438 -0.53125 -15.671875 C -0.6875 -14.941406 -0.753906 -14.445312 -0.734375 -14.1875 C -0.703125 -13.894531 -0.613281 -13.707031 -0.46875 -13.625 C -0.332031 -13.570312 -0.234375 -13.546875 -0.171875 -13.546875 Z M -0.171875 -13.546875 "/></g></g></g><g fill="#000000" fill-opacity="1"><g transform="translate(78.61525, 204.18352)"><g><path d="M 0.6875 -16.359375 C 0.820312 -16.273438 0.972656 -16.191406 1.140625 -16.109375 C 1.304688 -16.035156 1.5 -15.96875 1.71875 -15.90625 C 2.226562 -15.75 2.8125 -15.660156 3.46875 -15.640625 C 3.425781 -15.597656 3.375 -15.539062 3.3125 -15.46875 C 3.257812 -15.40625 3.210938 -15.351562 3.171875 -15.3125 C 2.734375 -14.9375 2.226562 -14.75 1.65625 -14.75 C 1.1875 -14.75 0.863281 -14.976562 0.6875 -15.4375 C 0.601562 -15.726562 0.601562 -16.035156 0.6875 -16.359375 Z M 1.25 -17.6875 L 1.1875 -17.8125 C 1.144531 -17.925781 1.144531 -18.050781 1.1875 -18.1875 C 1.257812 -18.363281 1.414062 -18.515625 1.65625 -18.640625 C 1.894531 -18.773438 2.171875 -18.84375 2.484375 -18.84375 C 3.179688 -18.84375 3.644531 -18.632812 3.875 -18.21875 C 4.09375 -17.800781 4.132812 -17.328125 4 -16.796875 C 3.644531 -16.816406 3.328125 -16.847656 3.046875 -16.890625 C 2.773438 -16.929688 2.53125 -16.976562 2.3125 -17.03125 C 1.757812 -17.207031 1.40625 -17.425781 1.25 -17.6875 Z M 1.328125 -13.59375 C 2.222656 -13.59375 3.054688 -13.910156 3.828125 -14.546875 C 4.003906 -14.703125 4.164062 -14.867188 4.3125 -15.046875 C 4.457031 -15.222656 4.582031 -15.410156 4.6875 -15.609375 L 4.765625 -15.609375 C 5.710938 -15.609375 6.695312 -15.65625 7.71875 -15.75 C 8.738281 -15.851562 9.800781 -15.992188 10.90625 -16.171875 C 13.15625 -16.546875 15.117188 -17.070312 16.796875 -17.75 C 16.953125 -17.84375 17.070312 -17.960938 17.15625 -18.109375 C 17.25 -18.242188 17.28125 -18.390625 17.25 -18.546875 C 17.207031 -18.722656 17.132812 -18.820312 17.03125 -18.84375 C 16.851562 -18.882812 16.695312 -18.875 16.5625 -18.8125 C 14.976562 -18.195312 13.128906 -17.703125 11.015625 -17.328125 C 9.953125 -17.148438 8.9375 -17.015625 7.96875 -16.921875 C 7 -16.835938 6.070312 -16.785156 5.1875 -16.765625 C 5.382812 -17.597656 5.296875 -18.359375 4.921875 -19.046875 C 4.566406 -19.703125 3.851562 -20.03125 2.78125 -20.03125 C 2.207031 -20.03125 1.664062 -19.878906 1.15625 -19.578125 C 0.675781 -19.242188 0.3125 -18.820312 0.0625 -18.3125 C -0.0625 -18 -0.09375 -17.679688 -0.03125 -17.359375 C -0.5625 -16.515625 -0.707031 -15.675781 -0.46875 -14.84375 C -0.132812 -14.007812 0.460938 -13.59375 1.328125 -13.59375 Z M 1.328125 -13.59375 "/></g></g></g><g fill="#000000" fill-opacity="1"><g transform="translate(94.811223, 204.18352)"><g><path d="M 7.203125 -14.515625 C 7.796875 -13.867188 8.46875 -13.546875 9.21875 -13.546875 C 9.351562 -13.546875 9.453125 -13.5625 9.515625 -13.59375 C 11.234375 -13.832031 12.566406 -15.265625 13.515625 -17.890625 C 13.710938 -17.640625 13.96875 -17.425781 14.28125 -17.25 C 14.832031 -16.90625 15.632812 -16.6875 16.6875 -16.59375 C 16.914062 -16.570312 17.144531 -16.5625 17.375 -16.5625 C 17.601562 -16.5625 17.835938 -16.5625 18.078125 -16.5625 C 18.585938 -16.5625 19.132812 -16.582031 19.71875 -16.625 C 20.300781 -16.664062 20.898438 -16.734375 21.515625 -16.828125 C 22.753906 -16.984375 23.957031 -17.25 25.125 -17.625 C 25.300781 -17.664062 25.429688 -17.765625 25.515625 -17.921875 C 25.628906 -18.078125 25.675781 -18.21875 25.65625 -18.34375 C 25.632812 -18.5 25.566406 -18.609375 25.453125 -18.671875 C 25.347656 -18.742188 25.191406 -18.753906 24.984375 -18.703125 C 23.535156 -18.222656 22.082031 -17.9375 20.625 -17.84375 C 19.144531 -17.71875 17.96875 -17.6875 17.09375 -17.75 C 16.28125 -17.863281 15.648438 -18.03125 15.203125 -18.25 C 14.742188 -18.488281 14.457031 -18.726562 14.34375 -18.96875 C 14.21875 -19.238281 14.15625 -19.453125 14.15625 -19.609375 C 14.125 -19.734375 14.054688 -19.851562 13.953125 -19.96875 C 13.796875 -20.03125 13.675781 -20.050781 13.59375 -20.03125 C 13.363281 -19.988281 13.207031 -19.921875 13.125 -19.828125 C 12.96875 -19.742188 12.867188 -19.601562 12.828125 -19.40625 C 12.691406 -18.875 12.523438 -18.359375 12.328125 -17.859375 C 12.128906 -17.367188 11.910156 -16.878906 11.671875 -16.390625 C 11.160156 -15.472656 10.5 -14.925781 9.6875 -14.75 C 9.15625 -14.675781 8.671875 -14.894531 8.234375 -15.40625 C 7.921875 -15.757812 7.675781 -16.285156 7.5 -16.984375 C 7.34375 -17.671875 7.378906 -18.476562 7.609375 -19.40625 C 7.648438 -19.582031 7.625 -19.722656 7.53125 -19.828125 C 7.425781 -19.941406 7.304688 -20 7.171875 -20 C 6.972656 -20 6.816406 -19.957031 6.703125 -19.875 C 6.578125 -19.78125 6.476562 -19.625 6.40625 -19.40625 C 5.925781 -17.882812 5.164062 -16.726562 4.125 -15.9375 C 3.113281 -15.144531 2.300781 -14.75 1.6875 -14.75 C 1.351562 -14.75 1.132812 -14.847656 1.03125 -15.046875 C 0.875 -15.242188 0.804688 -15.671875 0.828125 -16.328125 C 0.867188 -16.972656 1.097656 -17.988281 1.515625 -19.375 C 1.566406 -19.570312 1.554688 -19.710938 1.484375 -19.796875 C 1.421875 -19.890625 1.300781 -19.957031 1.125 -20 C 0.945312 -20 0.800781 -19.957031 0.6875 -19.875 C 0.5625 -19.78125 0.453125 -19.632812 0.359375 -19.4375 C -0.492188 -16.832031 -0.632812 -15.101562 -0.0625 -14.25 C 0.238281 -13.8125 0.710938 -13.59375 1.359375 -13.59375 C 2.304688 -13.59375 3.453125 -14.109375 4.796875 -15.140625 C 5.054688 -15.359375 5.304688 -15.59375 5.546875 -15.84375 C 5.796875 -16.101562 6.03125 -16.375 6.25 -16.65625 C 6.382812 -15.863281 6.703125 -15.148438 7.203125 -14.515625 Z M 7.203125 -14.515625 "/></g></g></g><g fill="#000000" fill-opacity="1"><g transform="translate(119.237407, 204.18352)"><g><path d="M 9.515625 -19.578125 C 7.597656 -17.453125 5.96875 -16.101562 4.625 -15.53125 C 3.175781 -14.894531 2.25 -14.65625 1.84375 -14.8125 C 1.71875 -14.8125 1.578125 -14.851562 1.421875 -14.9375 C 1.265625 -15.050781 1.132812 -15.25 1.03125 -15.53125 C 0.914062 -15.84375 0.890625 -16.296875 0.953125 -16.890625 C 1.003906 -17.203125 1.082031 -17.5625 1.1875 -17.96875 C 1.300781 -18.375 1.445312 -18.84375 1.625 -19.375 C 1.664062 -19.570312 1.65625 -19.722656 1.59375 -19.828125 C 1.519531 -19.941406 1.394531 -20 1.21875 -20 C 1.0625 -20.019531 0.921875 -19.988281 0.796875 -19.90625 C 0.660156 -19.8125 0.550781 -19.664062 0.46875 -19.46875 C -0.769531 -15.875 -0.484375 -13.9375 1.328125 -13.65625 C 1.410156 -13.632812 1.488281 -13.625 1.5625 -13.625 C 1.644531 -13.625 1.726562 -13.625 1.8125 -13.625 C 2.101562 -13.625 2.425781 -13.660156 2.78125 -13.734375 C 3.132812 -13.804688 3.53125 -13.921875 3.96875 -14.078125 C 4.851562 -14.367188 5.851562 -14.929688 6.96875 -15.765625 C 7.675781 -16.253906 8.363281 -16.847656 9.03125 -17.546875 C 9.03125 -17.460938 9.019531 -17.378906 9 -17.296875 C 8.988281 -17.222656 8.984375 -17.132812 8.984375 -17.03125 C 8.898438 -16.207031 9.085938 -15.476562 9.546875 -14.84375 C 9.972656 -14.175781 10.921875 -13.78125 12.390625 -13.65625 C 12.484375 -13.632812 12.628906 -13.625 12.828125 -13.625 C 14.390625 -13.664062 16 -14.128906 17.65625 -15.015625 C 18.46875 -15.453125 19.253906 -15.90625 20.015625 -16.375 C 20.773438 -16.851562 21.507812 -17.34375 22.21875 -17.84375 C 22.375 -17.9375 22.484375 -18.070312 22.546875 -18.25 C 22.585938 -18.425781 22.578125 -18.566406 22.515625 -18.671875 C 22.398438 -18.785156 22.28125 -18.851562 22.15625 -18.875 C 22 -18.875 21.84375 -18.832031 21.6875 -18.75 C 21.050781 -18.257812 20.367188 -17.785156 19.640625 -17.328125 C 18.910156 -16.878906 18.140625 -16.445312 17.328125 -16.03125 C 15.710938 -15.195312 14.203125 -14.789062 12.796875 -14.8125 C 11.691406 -14.914062 10.960938 -15.191406 10.609375 -15.640625 C 10.253906 -16.078125 10.113281 -16.628906 10.1875 -17.296875 C 10.25 -17.953125 10.378906 -18.585938 10.578125 -19.203125 L 10.640625 -19.4375 C 10.640625 -19.476562 10.640625 -19.519531 10.640625 -19.5625 C 10.640625 -19.613281 10.640625 -19.648438 10.640625 -19.671875 C 10.597656 -19.804688 10.546875 -19.894531 10.484375 -19.9375 C 10.367188 -20.019531 10.222656 -20.039062 10.046875 -20 C 9.910156 -19.957031 9.734375 -19.816406 9.515625 -19.578125 Z M 9.515625 -19.578125 "/></g></g></g><g fill="#000000" fill-opacity="1"><g transform="translate(140.68882, 204.18352)"><g><path d="M -0.46875 -13.546875 C -0.332031 -13.546875 -0.1875 -13.59375 -0.03125 -13.6875 C 0.144531 -13.789062 0.320312 -13.90625 0.5 -14.03125 C 0.675781 -14.15625 0.875 -14.28125 1.09375 -14.40625 C 1.507812 -14.695312 1.957031 -14.992188 2.4375 -15.296875 C 2.925781 -15.609375 3.445312 -15.941406 4 -16.296875 C 5.101562 -17.003906 6.160156 -17.597656 7.171875 -18.078125 C 8.234375 -18.585938 9.0625 -18.84375 9.65625 -18.84375 C 9.875 -18.84375 10.039062 -18.722656 10.15625 -18.484375 C 10.238281 -18.210938 10.300781 -17.789062 10.34375 -17.21875 C 10.363281 -16.957031 10.390625 -16.691406 10.421875 -16.421875 C 10.460938 -16.160156 10.515625 -15.890625 10.578125 -15.609375 C 10.710938 -15.078125 11 -14.601562 11.4375 -14.1875 C 11.875 -13.789062 12.578125 -13.59375 13.546875 -13.59375 C 14.691406 -13.59375 15.765625 -13.765625 16.765625 -14.109375 C 17.753906 -14.441406 18.710938 -14.875 19.640625 -15.40625 C 20.097656 -15.644531 20.550781 -15.90625 21 -16.1875 C 21.457031 -16.476562 21.90625 -16.769531 22.34375 -17.0625 L 22.9375 -17.421875 C 23.09375 -17.503906 23.203125 -17.632812 23.265625 -17.8125 C 23.335938 -17.96875 23.335938 -18.113281 23.265625 -18.25 C 23.203125 -18.382812 23.09375 -18.460938 22.9375 -18.484375 C 22.832031 -18.503906 22.679688 -18.457031 22.484375 -18.34375 L 21.84375 -17.984375 C 21.226562 -17.566406 20.601562 -17.164062 19.96875 -16.78125 C 19.332031 -16.394531 18.691406 -16.046875 18.046875 -15.734375 C 16.765625 -15.078125 15.378906 -14.75 13.890625 -14.75 C 13.160156 -14.75 12.648438 -14.890625 12.359375 -15.171875 C 12.078125 -15.441406 11.878906 -15.796875 11.765625 -16.234375 C 11.722656 -16.453125 11.679688 -16.675781 11.640625 -16.90625 C 11.597656 -17.132812 11.5625 -17.375 11.53125 -17.625 C 11.507812 -17.800781 11.492188 -17.988281 11.484375 -18.1875 C 11.472656 -18.382812 11.445312 -18.570312 11.40625 -18.75 C 11.363281 -18.925781 11.304688 -19.09375 11.234375 -19.25 C 11.171875 -19.414062 11.082031 -19.554688 10.96875 -19.671875 C 10.726562 -19.910156 10.398438 -20.03125 9.984375 -20.03125 C 9.191406 -20.03125 8.242188 -19.765625 7.140625 -19.234375 C 6.585938 -18.972656 6.03125 -18.6875 5.46875 -18.375 C 4.90625 -18.070312 4.335938 -17.742188 3.765625 -17.390625 C 2.617188 -16.660156 1.5625 -15.96875 0.59375 -15.3125 C 0.570312 -15.28125 0.546875 -15.257812 0.515625 -15.25 C 0.484375 -15.238281 0.441406 -15.222656 0.390625 -15.203125 C 0.503906 -15.597656 0.628906 -16.046875 0.765625 -16.546875 C 0.910156 -17.046875 1.070312 -17.582031 1.25 -18.15625 L 1.65625 -19.40625 C 1.695312 -19.601562 1.6875 -19.742188 1.625 -19.828125 C 1.53125 -19.941406 1.394531 -20.007812 1.21875 -20.03125 C 1.09375 -20.03125 0.953125 -19.976562 0.796875 -19.875 C 0.640625 -19.78125 0.539062 -19.644531 0.5 -19.46875 L 0.09375 -18.21875 C -0.0507812 -17.726562 -0.175781 -17.296875 -0.28125 -16.921875 C -0.382812 -16.546875 -0.476562 -16.21875 -0.5625 -15.9375 C -0.644531 -15.644531 -0.710938 -15.382812 -0.765625 -15.15625 C -0.828125 -14.925781 -0.867188 -14.734375 -0.890625 -14.578125 C -0.953125 -14.296875 -0.960938 -14.078125 -0.921875 -13.921875 C -0.878906 -13.785156 -0.816406 -13.6875 -0.734375 -13.625 C -0.640625 -13.570312 -0.550781 -13.546875 -0.46875 -13.546875 Z M -0.46875 -13.546875 "/></g></g></g><g fill="#000000" fill-opacity="1"><g transform="translate(162.966546, 204.18352)"><g><path d="M -0.171875 -13.546875 C -0.0351562 -13.546875 0.109375 -13.59375 0.265625 -13.6875 C 0.285156 -13.707031 0.300781 -13.71875 0.3125 -13.71875 C 0.320312 -13.71875 0.335938 -13.726562 0.359375 -13.75 L 0.796875 -14.109375 C 1.546875 -14.753906 2.265625 -15.34375 2.953125 -15.875 C 3.648438 -16.414062 4.316406 -16.929688 4.953125 -17.421875 C 6.234375 -18.367188 7.238281 -18.84375 7.96875 -18.84375 C 8.300781 -18.84375 8.476562 -18.632812 8.5 -18.21875 C 8.519531 -18 8.503906 -17.726562 8.453125 -17.40625 C 8.410156 -17.082031 8.347656 -16.703125 8.265625 -16.265625 C 8.222656 -16.046875 8.1875 -15.832031 8.15625 -15.625 C 8.132812 -15.414062 8.113281 -15.210938 8.09375 -15.015625 C 8.070312 -14.585938 8.109375 -14.242188 8.203125 -13.984375 C 8.304688 -13.722656 8.554688 -13.59375 8.953125 -13.59375 C 9.347656 -13.59375 9.8125 -13.789062 10.34375 -14.1875 C 10.875 -14.582031 11.492188 -15.097656 12.203125 -15.734375 C 12.578125 -16.109375 12.972656 -16.472656 13.390625 -16.828125 C 13.804688 -17.179688 14.234375 -17.519531 14.671875 -17.84375 C 15.535156 -18.507812 16.273438 -18.84375 16.890625 -18.84375 C 17.085938 -18.84375 17.195312 -18.742188 17.21875 -18.546875 C 17.238281 -18.453125 17.253906 -18.3125 17.265625 -18.125 C 17.285156 -17.9375 17.296875 -17.710938 17.296875 -17.453125 C 17.265625 -17.191406 17.265625 -16.921875 17.296875 -16.640625 C 17.335938 -16.367188 17.378906 -16.078125 17.421875 -15.765625 C 17.503906 -15.191406 17.800781 -14.6875 18.3125 -14.25 C 18.820312 -13.8125 19.640625 -13.59375 20.765625 -13.59375 C 21.691406 -13.59375 22.691406 -13.78125 23.765625 -14.15625 C 24.296875 -14.320312 24.816406 -14.519531 25.328125 -14.75 C 25.847656 -14.988281 26.363281 -15.238281 26.875 -15.5 C 27.382812 -15.75 27.875 -16.003906 28.34375 -16.265625 C 28.820312 -16.523438 29.269531 -16.78125 29.6875 -17.03125 C 29.707031 -17.03125 29.726562 -17.039062 29.75 -17.0625 C 29.96875 -17.164062 30.175781 -17.28125 30.375 -17.40625 C 30.570312 -17.53125 30.769531 -17.632812 30.96875 -17.71875 C 31.125 -17.800781 31.25 -17.921875 31.34375 -18.078125 C 31.40625 -18.210938 31.414062 -18.367188 31.375 -18.546875 C 31.300781 -18.703125 31.203125 -18.789062 31.078125 -18.8125 C 30.921875 -18.832031 30.765625 -18.796875 30.609375 -18.703125 C 30.390625 -18.597656 30.175781 -18.484375 29.96875 -18.359375 C 29.757812 -18.242188 29.535156 -18.117188 29.296875 -17.984375 C 28.054688 -17.253906 26.6875 -16.535156 25.1875 -15.828125 C 23.707031 -15.109375 22.332031 -14.75 21.0625 -14.75 C 20.238281 -14.75 19.640625 -14.898438 19.265625 -15.203125 C 18.941406 -15.492188 18.722656 -15.867188 18.609375 -16.328125 C 18.503906 -16.765625 18.472656 -17.238281 18.515625 -17.75 C 18.515625 -17.925781 18.507812 -18.109375 18.5 -18.296875 C 18.488281 -18.484375 18.472656 -18.664062 18.453125 -18.84375 C 18.421875 -19.019531 18.378906 -19.171875 18.328125 -19.296875 C 18.273438 -19.429688 18.203125 -19.554688 18.109375 -19.671875 C 17.960938 -19.890625 17.65625 -20 17.1875 -20 C 16.3125 -20 15.375 -19.632812 14.375 -18.90625 C 13.894531 -18.550781 13.410156 -18.171875 12.921875 -17.765625 C 12.441406 -17.359375 11.96875 -16.9375 11.5 -16.5 C 11.300781 -16.320312 11.101562 -16.144531 10.90625 -15.96875 C 10.707031 -15.789062 10.5 -15.613281 10.28125 -15.4375 C 9.84375 -15.0625 9.523438 -14.84375 9.328125 -14.78125 C 9.304688 -14.90625 9.304688 -15.132812 9.328125 -15.46875 C 9.347656 -15.625 9.367188 -15.769531 9.390625 -15.90625 C 9.410156 -16.050781 9.429688 -16.203125 9.453125 -16.359375 C 9.492188 -16.628906 9.535156 -16.898438 9.578125 -17.171875 C 9.628906 -17.453125 9.664062 -17.734375 9.6875 -18.015625 C 9.707031 -18.566406 9.640625 -19.039062 9.484375 -19.4375 C 9.285156 -19.8125 8.878906 -20 8.265625 -20 C 7.335938 -20 6.234375 -19.554688 4.953125 -18.671875 C 4.316406 -18.234375 3.628906 -17.726562 2.890625 -17.15625 C 2.148438 -16.582031 1.375 -15.941406 0.5625 -15.234375 C 0.601562 -15.523438 0.660156 -15.820312 0.734375 -16.125 C 0.816406 -16.4375 0.898438 -16.769531 0.984375 -17.125 C 1.078125 -17.476562 1.160156 -17.796875 1.234375 -18.078125 C 1.316406 -18.367188 1.390625 -18.625 1.453125 -18.84375 L 1.625 -19.4375 C 1.664062 -19.613281 1.640625 -19.742188 1.546875 -19.828125 C 1.441406 -19.941406 1.320312 -20 1.1875 -20 C 1.050781 -20 0.910156 -19.941406 0.765625 -19.828125 C 0.609375 -19.742188 0.5 -19.613281 0.4375 -19.4375 L 0.265625 -18.84375 C -0.0859375 -17.457031 -0.351562 -16.398438 -0.53125 -15.671875 C -0.6875 -14.941406 -0.753906 -14.445312 -0.734375 -14.1875 C -0.703125 -13.894531 -0.613281 -13.707031 -0.46875 -13.625 C -0.332031 -13.570312 -0.234375 -13.546875 -0.171875 -13.546875 Z M -0.171875 -13.546875 "/></g></g></g><g fill="#000000" fill-opacity="1"><g transform="translate(193.309205, 204.18352)"><g><path d="M 3.046875 -13.625 C 5.753906 -13.625 9.003906 -15.03125 12.796875 -17.84375 C 12.972656 -17.957031 13.070312 -18.09375 13.09375 -18.25 C 13.132812 -18.425781 13.125 -18.566406 13.0625 -18.671875 C 12.96875 -18.804688 12.84375 -18.875 12.6875 -18.875 C 12.5625 -18.875 12.410156 -18.816406 12.234375 -18.703125 C 8.378906 -15.835938 5.257812 -14.539062 2.875 -14.8125 C 2.0625 -14.851562 1.5 -15.148438 1.1875 -15.703125 C 0.769531 -16.554688 0.835938 -17.78125 1.390625 -19.375 C 1.410156 -19.53125 1.410156 -19.671875 1.390625 -19.796875 C 1.328125 -19.890625 1.207031 -19.957031 1.03125 -20 C 0.875 -20.019531 0.726562 -19.988281 0.59375 -19.90625 C 0.4375 -19.8125 0.328125 -19.675781 0.265625 -19.5 C 0.046875 -19.039062 -0.128906 -18.359375 -0.265625 -17.453125 C -0.441406 -16.546875 -0.320312 -15.707031 0.09375 -14.9375 C 0.5625 -14.144531 1.359375 -13.71875 2.484375 -13.65625 C 2.566406 -13.632812 2.65625 -13.625 2.75 -13.625 C 2.851562 -13.625 2.953125 -13.625 3.046875 -13.625 Z M 2.1875 -21.625 C 2.226562 -21.84375 2.203125 -22.019531 2.109375 -22.15625 C 2.023438 -22.28125 1.894531 -22.34375 1.71875 -22.34375 C 1.539062 -22.34375 1.363281 -22.28125 1.1875 -22.15625 C 1.007812 -21.976562 0.890625 -21.800781 0.828125 -21.625 C 0.785156 -21.375 0.804688 -21.195312 0.890625 -21.09375 C 0.984375 -20.9375 1.117188 -20.859375 1.296875 -20.859375 C 1.515625 -20.859375 1.695312 -20.9375 1.84375 -21.09375 C 2 -21.226562 2.113281 -21.40625 2.1875 -21.625 Z M 2.1875 -21.625 "/></g></g></g><g fill="#000000" fill-opacity="1"><g transform="translate(205.406605, 204.18352)"><g/></g></g><g fill="#000000" fill-opacity="1"><g transform="translate(222.39585, 204.18352)"><g><path d="M 29.84375 -18.578125 C 29.976562 -18.753906 30.132812 -18.84375 30.3125 -18.84375 C 30.445312 -18.84375 30.566406 -18.785156 30.671875 -18.671875 C 30.742188 -18.546875 30.710938 -18.382812 30.578125 -18.1875 C 29.785156 -17.039062 28.941406 -15.863281 28.046875 -14.65625 C 27.160156 -13.457031 26.207031 -12.226562 25.1875 -10.96875 C 23.1875 -8.476562 20.984375 -6.265625 18.578125 -4.328125 C 16.242188 -2.410156 13.695312 -1.164062 10.9375 -0.59375 C 7.8125 -0.113281 5.390625 -0.554688 3.671875 -1.921875 C 1.972656 -3.265625 0.9375 -5.148438 0.5625 -7.578125 C 0.1875 -9.992188 0.429688 -12.515625 1.296875 -15.140625 C 2.148438 -17.785156 3.582031 -20.125 5.59375 -22.15625 C 7.613281 -24.195312 10.132812 -25.550781 13.15625 -26.21875 C 11.675781 -27.25 10.914062 -28.601562 10.875 -30.28125 C 10.832031 -31.976562 11.296875 -33.707031 12.265625 -35.46875 C 13.234375 -37.226562 14.488281 -38.71875 16.03125 -39.9375 C 17.53125 -41.144531 19.117188 -41.785156 20.796875 -41.859375 C 22.867188 -41.765625 24.179688 -40.988281 24.734375 -39.53125 C 25.253906 -38.0625 25.238281 -36.488281 24.6875 -34.8125 C 24.113281 -33.09375 23.234375 -31.828125 22.046875 -31.015625 C 21.828125 -30.878906 21.628906 -30.863281 21.453125 -30.96875 C 21.296875 -31.0625 21.226562 -31.207031 21.25 -31.40625 C 21.25 -31.601562 21.375 -31.789062 21.625 -31.96875 C 22.457031 -32.539062 23.082031 -33.507812 23.5 -34.875 C 23.945312 -36.238281 23.984375 -37.53125 23.609375 -38.75 C 23.210938 -39.9375 22.175781 -40.5625 20.5 -40.625 C 19.039062 -40.5625 17.597656 -39.910156 16.171875 -38.671875 C 14.753906 -37.460938 13.660156 -36 12.890625 -34.28125 C 12.097656 -32.5625 11.898438 -30.960938 12.296875 -29.484375 C 12.648438 -28.035156 13.894531 -27.023438 16.03125 -26.453125 C 16.25 -26.421875 16.359375 -26.304688 16.359375 -26.109375 C 16.359375 -25.910156 16.296875 -25.722656 16.171875 -25.546875 C 15.992188 -25.378906 15.804688 -25.28125 15.609375 -25.25 L 15.578125 -25.25 C 12.460938 -25.1875 9.828125 -24.296875 7.671875 -22.578125 C 5.484375 -20.796875 3.882812 -18.679688 2.875 -16.234375 C 1.84375 -13.722656 1.425781 -11.285156 1.625 -8.921875 C 1.820312 -6.523438 2.691406 -4.617188 4.234375 -3.203125 C 5.773438 -1.796875 8.046875 -1.300781 11.046875 -1.71875 C 13.535156 -2.226562 15.890625 -3.375 18.109375 -5.15625 C 20.296875 -6.914062 22.378906 -8.988281 24.359375 -11.375 C 25.328125 -12.539062 26.25 -13.695312 27.125 -14.84375 C 28 -15.988281 28.820312 -17.113281 29.59375 -18.21875 C 29.632812 -18.28125 29.675781 -18.34375 29.71875 -18.40625 C 29.757812 -18.476562 29.800781 -18.535156 29.84375 -18.578125 Z M 29.84375 -18.578125 "/></g></g></g><g fill="#000000" fill-opacity="1"><g transform="translate(251.548601, 204.18352)"><g><path d="M -0.46875 -13.546875 C -0.332031 -13.546875 -0.1875 -13.59375 -0.03125 -13.6875 C 0.144531 -13.789062 0.320312 -13.90625 0.5 -14.03125 C 0.675781 -14.15625 0.875 -14.28125 1.09375 -14.40625 C 1.507812 -14.695312 1.957031 -14.992188 2.4375 -15.296875 C 2.925781 -15.609375 3.445312 -15.941406 4 -16.296875 C 5.101562 -17.003906 6.160156 -17.597656 7.171875 -18.078125 C 8.234375 -18.585938 9.0625 -18.84375 9.65625 -18.84375 C 9.875 -18.84375 10.039062 -18.722656 10.15625 -18.484375 C 10.238281 -18.210938 10.300781 -17.789062 10.34375 -17.21875 C 10.363281 -16.957031 10.390625 -16.691406 10.421875 -16.421875 C 10.460938 -16.160156 10.515625 -15.890625 10.578125 -15.609375 C 10.710938 -15.078125 11 -14.601562 11.4375 -14.1875 C 11.875 -13.789062 12.578125 -13.59375 13.546875 -13.59375 C 14.691406 -13.59375 15.765625 -13.765625 16.765625 -14.109375 C 17.753906 -14.441406 18.710938 -14.875 19.640625 -15.40625 C 20.097656 -15.644531 20.550781 -15.90625 21 -16.1875 C 21.457031 -16.476562 21.90625 -16.769531 22.34375 -17.0625 L 22.9375 -17.421875 C 23.09375 -17.503906 23.203125 -17.632812 23.265625 -17.8125 C 23.335938 -17.96875 23.335938 -18.113281 23.265625 -18.25 C 23.203125 -18.382812 23.09375 -18.460938 22.9375 -18.484375 C 22.832031 -18.503906 22.679688 -18.457031 22.484375 -18.34375 L 21.84375 -17.984375 C 21.226562 -17.566406 20.601562 -17.164062 19.96875 -16.78125 C 19.332031 -16.394531 18.691406 -16.046875 18.046875 -15.734375 C 16.765625 -15.078125 15.378906 -14.75 13.890625 -14.75 C 13.160156 -14.75 12.648438 -14.890625 12.359375 -15.171875 C 12.078125 -15.441406 11.878906 -15.796875 11.765625 -16.234375 C 11.722656 -16.453125 11.679688 -16.675781 11.640625 -16.90625 C 11.597656 -17.132812 11.5625 -17.375 11.53125 -17.625 C 11.507812 -17.800781 11.492188 -17.988281 11.484375 -18.1875 C 11.472656 -18.382812 11.445312 -18.570312 11.40625 -18.75 C 11.363281 -18.925781 11.304688 -19.09375 11.234375 -19.25 C 11.171875 -19.414062 11.082031 -19.554688 10.96875 -19.671875 C 10.726562 -19.910156 10.398438 -20.03125 9.984375 -20.03125 C 9.191406 -20.03125 8.242188 -19.765625 7.140625 -19.234375 C 6.585938 -18.972656 6.03125 -18.6875 5.46875 -18.375 C 4.90625 -18.070312 4.335938 -17.742188 3.765625 -17.390625 C 2.617188 -16.660156 1.5625 -15.96875 0.59375 -15.3125 C 0.570312 -15.28125 0.546875 -15.257812 0.515625 -15.25 C 0.484375 -15.238281 0.441406 -15.222656 0.390625 -15.203125 C 0.503906 -15.597656 0.628906 -16.046875 0.765625 -16.546875 C 0.910156 -17.046875 1.070312 -17.582031 1.25 -18.15625 L 1.65625 -19.40625 C 1.695312 -19.601562 1.6875 -19.742188 1.625 -19.828125 C 1.53125 -19.941406 1.394531 -20.007812 1.21875 -20.03125 C 1.09375 -20.03125 0.953125 -19.976562 0.796875 -19.875 C 0.640625 -19.78125 0.539062 -19.644531 0.5 -19.46875 L 0.09375 -18.21875 C -0.0507812 -17.726562 -0.175781 -17.296875 -0.28125 -16.921875 C -0.382812 -16.546875 -0.476562 -16.21875 -0.5625 -15.9375 C -0.644531 -15.644531 -0.710938 -15.382812 -0.765625 -15.15625 C -0.828125 -14.925781 -0.867188 -14.734375 -0.890625 -14.578125 C -0.953125 -14.296875 -0.960938 -14.078125 -0.921875 -13.921875 C -0.878906 -13.785156 -0.816406 -13.6875 -0.734375 -13.625 C -0.640625 -13.570312 -0.550781 -13.546875 -0.46875 -13.546875 Z M -0.46875 -13.546875 "/></g></g></g><g fill="#000000" fill-opacity="1"><g transform="translate(273.826326, 204.18352)"><g><path d="M 2.609375 -18.84375 C 2.921875 -18.84375 3.1875 -18.765625 3.40625 -18.609375 C 3.507812 -18.523438 3.625 -18.4375 3.75 -18.34375 C 3.875 -18.257812 3.976562 -18.171875 4.0625 -18.078125 C 3.507812 -17.222656 2.957031 -16.453125 2.40625 -15.765625 C 1.863281 -15.035156 1.390625 -14.671875 0.984375 -14.671875 C 0.765625 -14.671875 0.625 -14.769531 0.5625 -14.96875 C 0.476562 -15.144531 0.4375 -15.332031 0.4375 -15.53125 C 0.4375 -16.0625 0.585938 -16.660156 0.890625 -17.328125 C 1.179688 -17.941406 1.554688 -18.390625 2.015625 -18.671875 C 2.234375 -18.785156 2.429688 -18.84375 2.609375 -18.84375 Z M 6.1875 -19.703125 C 6.132812 -19.859375 6.054688 -19.945312 5.953125 -19.96875 C 5.796875 -20.03125 5.640625 -20.03125 5.484375 -19.96875 C 5.304688 -19.90625 5.175781 -19.796875 5.09375 -19.640625 C 5.050781 -19.566406 5 -19.5 4.9375 -19.4375 C 4.882812 -19.375 4.835938 -19.296875 4.796875 -19.203125 C 4.179688 -19.734375 3.609375 -20 3.078125 -20 C 2.503906 -20 2.039062 -19.890625 1.6875 -19.671875 C 0.894531 -19.234375 0.289062 -18.582031 -0.125 -17.71875 C -0.570312 -16.789062 -0.785156 -15.960938 -0.765625 -15.234375 C -0.691406 -14.066406 -0.207031 -13.484375 0.6875 -13.484375 C 1.238281 -13.484375 1.789062 -13.726562 2.34375 -14.21875 C 2.914062 -14.71875 3.457031 -15.332031 3.96875 -16.0625 C 4.03125 -16.175781 4.09375 -16.28125 4.15625 -16.375 C 4.226562 -16.476562 4.304688 -16.570312 4.390625 -16.65625 C 4.328125 -16.019531 4.453125 -15.414062 4.765625 -14.84375 C 5.066406 -14.25 5.757812 -13.851562 6.84375 -13.65625 C 7.175781 -13.582031 7.519531 -13.546875 7.875 -13.546875 C 10.34375 -13.546875 13.46875 -14.828125 17.25 -17.390625 C 17.40625 -17.472656 17.519531 -17.601562 17.59375 -17.78125 C 17.632812 -17.957031 17.617188 -18.101562 17.546875 -18.21875 C 17.460938 -18.34375 17.351562 -18.421875 17.21875 -18.453125 C 17.039062 -18.453125 16.878906 -18.40625 16.734375 -18.3125 C 12.742188 -15.625 9.613281 -14.457031 7.34375 -14.8125 C 6.300781 -14.96875 5.726562 -15.421875 5.625 -16.171875 C 5.507812 -16.867188 5.640625 -17.769531 6.015625 -18.875 C 6.148438 -19.3125 6.207031 -19.585938 6.1875 -19.703125 Z M 6.1875 -19.703125 "/></g></g></g><g fill="#000000" fill-opacity="1"><g transform="translate(290.452001, 204.18352)"><g><path d="M -0.203125 -13.546875 C -0.046875 -13.546875 0.109375 -13.59375 0.265625 -13.6875 C 0.421875 -13.789062 0.585938 -13.90625 0.765625 -14.03125 C 0.941406 -14.15625 1.140625 -14.28125 1.359375 -14.40625 C 1.796875 -14.695312 2.25 -14.992188 2.71875 -15.296875 C 3.195312 -15.609375 3.710938 -15.941406 4.265625 -16.296875 C 5.367188 -17.003906 6.425781 -17.597656 7.4375 -18.078125 C 8.5 -18.585938 9.328125 -18.84375 9.921875 -18.84375 C 10.179688 -18.84375 10.359375 -18.710938 10.453125 -18.453125 C 10.492188 -18.296875 10.523438 -18.113281 10.546875 -17.90625 C 10.566406 -17.695312 10.585938 -17.445312 10.609375 -17.15625 C 10.628906 -16.894531 10.65625 -16.628906 10.6875 -16.359375 C 10.726562 -16.097656 10.78125 -15.835938 10.84375 -15.578125 C 10.925781 -15.023438 11.179688 -14.5625 11.609375 -14.1875 C 11.984375 -13.789062 12.609375 -13.59375 13.484375 -13.59375 C 14.671875 -13.59375 15.90625 -13.8125 17.1875 -14.25 C 18.40625 -14.664062 19.585938 -15.21875 20.734375 -15.90625 C 21.828125 -16.519531 22.835938 -17.164062 23.765625 -17.84375 C 23.941406 -17.957031 24.039062 -18.09375 24.0625 -18.25 C 24.101562 -18.425781 24.09375 -18.566406 24.03125 -18.671875 C 23.945312 -18.804688 23.828125 -18.875 23.671875 -18.875 C 23.535156 -18.875 23.378906 -18.816406 23.203125 -18.703125 C 22.785156 -18.398438 22.335938 -18.097656 21.859375 -17.796875 C 21.390625 -17.503906 20.898438 -17.203125 20.390625 -16.890625 C 19.890625 -16.585938 19.367188 -16.304688 18.828125 -16.046875 C 18.285156 -15.796875 17.726562 -15.570312 17.15625 -15.375 C 16.03125 -14.957031 14.914062 -14.75 13.8125 -14.75 C 13 -14.75 12.472656 -15 12.234375 -15.5 C 12.015625 -15.988281 11.878906 -16.660156 11.828125 -17.515625 C 11.804688 -17.710938 11.789062 -17.910156 11.78125 -18.109375 C 11.769531 -18.304688 11.742188 -18.503906 11.703125 -18.703125 C 11.585938 -19.109375 11.441406 -19.429688 11.265625 -19.671875 C 11.023438 -19.910156 10.6875 -20.03125 10.25 -20.03125 C 9.476562 -20.03125 8.539062 -19.765625 7.4375 -19.234375 C 6.882812 -18.972656 6.320312 -18.6875 5.75 -18.375 C 5.175781 -18.070312 4.601562 -17.742188 4.03125 -17.390625 C 2.882812 -16.660156 1.828125 -15.96875 0.859375 -15.3125 C 0.816406 -15.28125 0.757812 -15.242188 0.6875 -15.203125 C 0.625 -15.160156 0.5625 -15.117188 0.5 -15.078125 C 0.601562 -15.753906 0.789062 -16.679688 1.0625 -17.859375 C 1.34375 -19.046875 1.707031 -20.476562 2.15625 -22.15625 C 3.050781 -25.5 3.941406 -28.800781 4.828125 -32.0625 C 5.140625 -33.1875 5.4375 -34.273438 5.71875 -35.328125 C 6.007812 -36.390625 6.285156 -37.429688 6.546875 -38.453125 C 6.585938 -38.628906 6.578125 -38.757812 6.515625 -38.84375 C 6.398438 -38.957031 6.265625 -39.015625 6.109375 -39.015625 C 5.984375 -39.015625 5.84375 -38.957031 5.6875 -38.84375 C 5.53125 -38.757812 5.429688 -38.628906 5.390625 -38.453125 C 5.097656 -37.429688 4.8125 -36.390625 4.53125 -35.328125 C 4.257812 -34.273438 3.972656 -33.1875 3.671875 -32.0625 C 3.234375 -30.457031 2.832031 -28.984375 2.46875 -27.640625 C 2.101562 -26.296875 1.773438 -25.070312 1.484375 -23.96875 C 1.203125 -22.882812 0.941406 -21.898438 0.703125 -21.015625 C 0.472656 -20.140625 0.28125 -19.359375 0.125 -18.671875 C -0.195312 -17.328125 -0.425781 -16.304688 -0.5625 -15.609375 C -0.695312 -14.941406 -0.738281 -14.457031 -0.6875 -14.15625 C -0.664062 -13.863281 -0.59375 -13.6875 -0.46875 -13.625 C -0.375 -13.570312 -0.285156 -13.546875 -0.203125 -13.546875 Z M -0.203125 -13.546875 "/></g></g></g><g fill="#000000" fill-opacity="1"><g transform="translate(313.489959, 204.18352)"><g><path d="M 0.6875 -16.359375 C 0.820312 -16.273438 0.972656 -16.191406 1.140625 -16.109375 C 1.304688 -16.035156 1.5 -15.96875 1.71875 -15.90625 C 2.226562 -15.75 2.8125 -15.660156 3.46875 -15.640625 C 3.425781 -15.597656 3.375 -15.539062 3.3125 -15.46875 C 3.257812 -15.40625 3.210938 -15.351562 3.171875 -15.3125 C 2.734375 -14.9375 2.226562 -14.75 1.65625 -14.75 C 1.1875 -14.75 0.863281 -14.976562 0.6875 -15.4375 C 0.601562 -15.726562 0.601562 -16.035156 0.6875 -16.359375 Z M 1.25 -17.6875 L 1.1875 -17.8125 C 1.144531 -17.925781 1.144531 -18.050781 1.1875 -18.1875 C 1.257812 -18.363281 1.414062 -18.515625 1.65625 -18.640625 C 1.894531 -18.773438 2.171875 -18.84375 2.484375 -18.84375 C 3.179688 -18.84375 3.644531 -18.632812 3.875 -18.21875 C 4.09375 -17.800781 4.132812 -17.328125 4 -16.796875 C 3.644531 -16.816406 3.328125 -16.847656 3.046875 -16.890625 C 2.773438 -16.929688 2.53125 -16.976562 2.3125 -17.03125 C 1.757812 -17.207031 1.40625 -17.425781 1.25 -17.6875 Z M 1.328125 -13.59375 C 2.222656 -13.59375 3.054688 -13.910156 3.828125 -14.546875 C 4.003906 -14.703125 4.164062 -14.867188 4.3125 -15.046875 C 4.457031 -15.222656 4.582031 -15.410156 4.6875 -15.609375 L 4.765625 -15.609375 C 5.710938 -15.609375 6.695312 -15.65625 7.71875 -15.75 C 8.738281 -15.851562 9.800781 -15.992188 10.90625 -16.171875 C 13.15625 -16.546875 15.117188 -17.070312 16.796875 -17.75 C 16.953125 -17.84375 17.070312 -17.960938 17.15625 -18.109375 C 17.25 -18.242188 17.28125 -18.390625 17.25 -18.546875 C 17.207031 -18.722656 17.132812 -18.820312 17.03125 -18.84375 C 16.851562 -18.882812 16.695312 -18.875 16.5625 -18.8125 C 14.976562 -18.195312 13.128906 -17.703125 11.015625 -17.328125 C 9.953125 -17.148438 8.9375 -17.015625 7.96875 -16.921875 C 7 -16.835938 6.070312 -16.785156 5.1875 -16.765625 C 5.382812 -17.597656 5.296875 -18.359375 4.921875 -19.046875 C 4.566406 -19.703125 3.851562 -20.03125 2.78125 -20.03125 C 2.207031 -20.03125 1.664062 -19.878906 1.15625 -19.578125 C 0.675781 -19.242188 0.3125 -18.820312 0.0625 -18.3125 C -0.0625 -18 -0.09375 -17.679688 -0.03125 -17.359375 C -0.5625 -16.515625 -0.707031 -15.675781 -0.46875 -14.84375 C -0.132812 -14.007812 0.460938 -13.59375 1.328125 -13.59375 Z M 1.328125 -13.59375 "/></g></g></g><g fill="#000000" fill-opacity="1"><g transform="translate(329.685931, 204.18352)"><g><path d="M 0.03125 -13.546875 C 0.40625 -13.546875 0.769531 -13.757812 1.125 -14.1875 C 1.5 -14.625 1.894531 -15.1875 2.3125 -15.875 C 2.707031 -16.507812 3.171875 -17.164062 3.703125 -17.84375 C 4.210938 -18.507812 4.664062 -18.84375 5.0625 -18.84375 C 5.238281 -18.84375 5.367188 -18.8125 5.453125 -18.75 C 5.492188 -18.695312 5.539062 -18.640625 5.59375 -18.578125 C 5.65625 -18.515625 5.726562 -18.4375 5.8125 -18.34375 C 5.90625 -18.238281 6.003906 -18.128906 6.109375 -18.015625 C 6.222656 -17.898438 6.359375 -17.789062 6.515625 -17.6875 C 6.847656 -17.425781 7.242188 -17.207031 7.703125 -17.03125 C 8.453125 -16.800781 9.726562 -16.703125 11.53125 -16.734375 C 12.4375 -16.753906 13.347656 -16.816406 14.265625 -16.921875 C 15.179688 -17.035156 16.101562 -17.179688 17.03125 -17.359375 C 17.15625 -17.378906 17.296875 -17.46875 17.453125 -17.625 C 17.566406 -17.75 17.632812 -17.890625 17.65625 -18.046875 C 17.65625 -18.203125 17.597656 -18.335938 17.484375 -18.453125 C 17.378906 -18.535156 17.238281 -18.554688 17.0625 -18.515625 C 15.226562 -18.140625 13.484375 -17.941406 11.828125 -17.921875 C 10.085938 -17.867188 8.921875 -17.945312 8.328125 -18.15625 C 7.929688 -18.320312 7.625 -18.492188 7.40625 -18.671875 C 7.289062 -18.765625 7.179688 -18.851562 7.078125 -18.9375 C 6.984375 -19.03125 6.894531 -19.117188 6.8125 -19.203125 C 6.71875 -19.316406 6.625 -19.421875 6.53125 -19.515625 C 6.445312 -19.617188 6.351562 -19.710938 6.25 -19.796875 C 6.03125 -19.953125 5.734375 -20.03125 5.359375 -20.03125 C 4.828125 -20.03125 4.332031 -19.832031 3.875 -19.4375 C 3.625 -19.238281 3.390625 -19.015625 3.171875 -18.765625 C 2.953125 -18.523438 2.734375 -18.265625 2.515625 -17.984375 C 2.296875 -17.691406 2.085938 -17.398438 1.890625 -17.109375 C 1.691406 -16.828125 1.503906 -16.546875 1.328125 -16.265625 C 1.191406 -16.046875 1.054688 -15.84375 0.921875 -15.65625 C 0.796875 -15.46875 0.664062 -15.285156 0.53125 -15.109375 C 0.570312 -15.347656 0.617188 -15.628906 0.671875 -15.953125 C 0.734375 -16.273438 0.804688 -16.617188 0.890625 -16.984375 C 0.984375 -17.359375 1.066406 -17.695312 1.140625 -18 C 1.210938 -18.300781 1.285156 -18.5625 1.359375 -18.78125 L 1.453125 -19.171875 C 1.492188 -19.367188 1.484375 -19.515625 1.421875 -19.609375 C 1.304688 -19.710938 1.1875 -19.765625 1.0625 -19.765625 C 0.90625 -19.765625 0.75 -19.710938 0.59375 -19.609375 C 0.4375 -19.515625 0.335938 -19.367188 0.296875 -19.171875 L 0.203125 -18.78125 C -0.617188 -15.9375 -0.851562 -14.28125 -0.5 -13.8125 C -0.363281 -13.632812 -0.1875 -13.546875 0.03125 -13.546875 Z M 0.03125 -13.546875 "/></g></g></g><g fill="#000000" fill-opacity="1"><g transform="translate(346.212434, 204.18352)"><g><path d="M 0.6875 -16.359375 C 0.820312 -16.273438 0.972656 -16.191406 1.140625 -16.109375 C 1.304688 -16.035156 1.5 -15.96875 1.71875 -15.90625 C 2.226562 -15.75 2.8125 -15.660156 3.46875 -15.640625 C 3.425781 -15.597656 3.375 -15.539062 3.3125 -15.46875 C 3.257812 -15.40625 3.210938 -15.351562 3.171875 -15.3125 C 2.734375 -14.9375 2.226562 -14.75 1.65625 -14.75 C 1.1875 -14.75 0.863281 -14.976562 0.6875 -15.4375 C 0.601562 -15.726562 0.601562 -16.035156 0.6875 -16.359375 Z M 1.25 -17.6875 L 1.1875 -17.8125 C 1.144531 -17.925781 1.144531 -18.050781 1.1875 -18.1875 C 1.257812 -18.363281 1.414062 -18.515625 1.65625 -18.640625 C 1.894531 -18.773438 2.171875 -18.84375 2.484375 -18.84375 C 3.179688 -18.84375 3.644531 -18.632812 3.875 -18.21875 C 4.09375 -17.800781 4.132812 -17.328125 4 -16.796875 C 3.644531 -16.816406 3.328125 -16.847656 3.046875 -16.890625 C 2.773438 -16.929688 2.53125 -16.976562 2.3125 -17.03125 C 1.757812 -17.207031 1.40625 -17.425781 1.25 -17.6875 Z M 1.328125 -13.59375 C 2.222656 -13.59375 3.054688 -13.910156 3.828125 -14.546875 C 4.003906 -14.703125 4.164062 -14.867188 4.3125 -15.046875 C 4.457031 -15.222656 4.582031 -15.410156 4.6875 -15.609375 L 4.765625 -15.609375 C 5.710938 -15.609375 6.695312 -15.65625 7.71875 -15.75 C 8.738281 -15.851562 9.800781 -15.992188 10.90625 -16.171875 C 13.15625 -16.546875 15.117188 -17.070312 16.796875 -17.75 C 16.953125 -17.84375 17.070312 -17.960938 17.15625 -18.109375 C 17.25 -18.242188 17.28125 -18.390625 17.25 -18.546875 C 17.207031 -18.722656 17.132812 -18.820312 17.03125 -18.84375 C 16.851562 -18.882812 16.695312 -18.875 16.5625 -18.8125 C 14.976562 -18.195312 13.128906 -17.703125 11.015625 -17.328125 C 9.953125 -17.148438 8.9375 -17.015625 7.96875 -16.921875 C 7 -16.835938 6.070312 -16.785156 5.1875 -16.765625 C 5.382812 -17.597656 5.296875 -18.359375 4.921875 -19.046875 C 4.566406 -19.703125 3.851562 -20.03125 2.78125 -20.03125 C 2.207031 -20.03125 1.664062 -19.878906 1.15625 -19.578125 C 0.675781 -19.242188 0.3125 -18.820312 0.0625 -18.3125 C -0.0625 -18 -0.09375 -17.679688 -0.03125 -17.359375 C -0.5625 -16.515625 -0.707031 -15.675781 -0.46875 -14.84375 C -0.132812 -14.007812 0.460938 -13.59375 1.328125 -13.59375 Z M 1.328125 -13.59375 "/></g></g></g></svg>